<svg height="512" viewBox="0 0 512 512" width="512" xmlns="http://www.w3.org/2000/svg"><path d="m240 392h32v16h-32z"/><path d="m240 432h32v16h-32z"/><path d="m303.516 480-7.532-120.5a7.9 7.9 0 0 0 -5.845-7.086l5.619-22.476a7.98 7.98 0 0 0 -1.453-6.86 7.818 7.818 0 0 0 -4.185-2.589l5.638-22.551a7.98 7.98 0 0 0 -1.453-6.86 7.818 7.818 0 0 0 -4.185-2.589l5.638-22.551a7.98 7.98 0 0 0 -1.453-6.86 7.818 7.818 0 0 0 -4.185-2.589l5.638-22.551a7.98 7.98 0 0 0 -1.453-6.86 7.818 7.818 0 0 0 -4.185-2.589l5.638-22.551a7.98 7.98 0 0 0 -1.453-6.86 7.818 7.818 0 0 0 -4.185-2.589l5.638-22.551a7.98 7.98 0 0 0 -1.453-6.86 7.818 7.818 0 0 0 -4.185-2.589l5.638-22.551a7.98 7.98 0 0 0 -1.453-6.86 7.818 7.818 0 0 0 -4.185-2.589l5.638-22.551a8 8 0 0 0 -7.758-9.938h-13.758l5.516-22.062a8 8 0 0 0 -7.758-9.938h-8v-8h8v-16h-8v-16a8 8 0 0 0 -8-8 8 8 0 0 0 -8 8v16h-8v16h8v8h-8a8 8 0 0 0 -7.758 9.938l5.516 22.062h-13.758a8 8 0 0 0 -7.758 9.938l5.638 22.551a7.818 7.818 0 0 0 -4.185 2.589 7.98 7.98 0 0 0 -1.453 6.86l5.638 22.551a7.818 7.818 0 0 0 -4.185 2.589 7.98 7.98 0 0 0 -1.453 6.86l5.638 22.551a7.818 7.818 0 0 0 -4.185 2.589 7.98 7.98 0 0 0 -1.453 6.86l5.638 22.551a7.818 7.818 0 0 0 -4.185 2.589 7.98 7.98 0 0 0 -1.453 6.86l5.638 22.551a7.818 7.818 0 0 0 -4.185 2.589 7.98 7.98 0 0 0 -1.453 6.86l5.638 22.551a7.818 7.818 0 0 0 -4.185 2.589 7.98 7.98 0 0 0 -1.453 6.86l5.638 22.551a7.818 7.818 0 0 0 -4.185 2.589 7.98 7.98 0 0 0 -1.453 6.86l5.619 22.476a7.9 7.9 0 0 0 -5.845 7.086l-7.532 120.5h-80.484v16h256v-16zm-69.266-336h43.5l-4 16h-35.5zm0 32h43.5l-4 16h-35.5zm0 32h43.5l-4 16h-35.5zm0 32h43.5l-4 16h-35.5zm0 32h43.5l-4 16h-35.5zm0 32h43.5l-4 16h-35.5zm0 32h43.5l-4 16h-35.5zm16-256h11.5l-4 16h-3.5zm27.5 32-4 16h-35.5l-4-16zm-13.75 368v-16h-16v16h-23.484l7-112h48.968l7 112z"/></svg>